<svg width="64" height="95" viewBox="0 0 64 95" fill="none" xmlns="http://www.w3.org/2000/svg">
<path d="M53.8577 53.8408C66.1621 41.5404 66.1621 21.526 53.8577 9.22549C41.5534 -3.07516 21.5328 -3.07516 9.22828 9.22549C-3.07609 21.526 -3.07609 41.5404 9.22828 53.8408C14.4366 59.0475 21.0274 62.0494 27.8301 62.8484V73.4103H20.4049C18.3544 73.4103 16.6923 75.0721 16.6923 77.1218C16.6923 79.1715 18.3544 80.8333 20.4049 80.8333H27.8301V91.2885C27.8303 93.3382 29.4924 95 31.5431 95C33.5936 95 35.2557 93.3382 35.2557 91.2885V80.8333H42.6811C44.7316 80.8333 46.3937 79.1715 46.3937 77.1218C46.3937 75.0721 44.7316 73.4103 42.6811 73.4103H35.2557V62.8486C42.0586 62.0494 48.6494 59.0475 53.8577 53.8408ZM14.4789 48.5919C5.06961 39.1856 5.06961 23.8806 14.4789 14.4742C23.888 5.06831 39.1977 5.06775 48.6073 14.4742C58.0166 23.8806 58.0166 39.1856 48.6073 48.5919C39.198 57.998 23.8882 57.998 14.4789 48.5919Z" fill="white"/>
</svg>
