<svg width="87" height="87" viewBox="0 0 87 87" fill="none" xmlns="http://www.w3.org/2000/svg">
<g clip-path="url(#clip0)">
<path d="M86.9531 3.15771C86.9133 2.84531 86.8442 2.5444 86.7301 2.26208C86.7265 2.255 86.7265 2.24527 86.7248 2.23642C86.7248 2.23465 86.723 2.23288 86.7212 2.23111C86.5956 1.93375 86.4239 1.66382 86.23 1.41336C86.1823 1.35406 86.1353 1.29565 86.0849 1.2399C85.8778 1.00626 85.653 0.790314 85.3919 0.614197C85.3849 0.608887 85.376 0.607117 85.3689 0.601807C85.1167 0.435425 84.8379 0.309754 84.5459 0.210632C84.4733 0.184967 84.4025 0.162842 84.3282 0.143371C84.0219 0.0601807 83.7069 0 83.375 0H58C55.999 0 54.375 1.62399 54.375 3.625C54.375 5.62601 55.999 7.25 58 7.25H74.6223L52.9864 28.8858C47.217 24.2714 40.114 21.75 32.625 21.75C14.6363 21.75 0 36.3863 0 54.375C0 72.3637 14.6363 87 32.625 87C50.6137 87 65.25 72.3637 65.25 54.375C65.25 46.8896 62.7304 39.7883 58.1124 34.0136L79.75 12.376V29C79.75 31.001 81.374 32.625 83.375 32.625C85.376 32.625 87 31.001 87 29V3.625C87 3.54889 86.9823 3.47632 86.9779 3.40198C86.9726 3.31879 86.9637 3.23914 86.9531 3.15771ZM32.625 79.75C18.6321 79.75 7.25 68.3679 7.25 54.375C7.25 40.3821 18.6321 29 32.625 29C39.3997 29 45.778 31.6373 50.5739 36.4164C55.3627 41.222 58 47.6003 58 54.375C58 68.3679 46.6179 79.75 32.625 79.75Z" fill="white"/>
</g>
<defs>
<clipPath id="clip0">
<rect width="87" height="87" fill="white"/>
</clipPath>
</defs>
</svg>
